<svg xmlns="http://www.w3.org/2000/svg" width="768" height="1024" viewBox="0 0 768 1024">
  
  <defs>
    <pattern id="ptn893365" width="64" height="64" patternUnits="userSpaceOnUse">
      <rect x="0" y="0" width="64" height="64" fill="transparent"/>
      <circle cx="44" cy="61" r="0.65" fill="#1E1E1E" opacity="0.06"/><circle cx="6" cy="31" r="0.87" fill="#1E1E1E" opacity="0.06"/><circle cx="2" cy="49" r="0.92" fill="#1E1E1E" opacity="0.06"/><circle cx="56" cy="61" r="0.27" fill="#1E1E1E" opacity="0.06"/><circle cx="7" cy="16" r="1.09" fill="#1E1E1E" opacity="0.06"/><circle cx="1" cy="61" r="0.97" fill="#1E1E1E" opacity="0.06"/><circle cx="16" cy="31" r="1.06" fill="#1E1E1E" opacity="0.06"/><circle cx="0" cy="26" r="0.99" fill="#1E1E1E" opacity="0.06"/><circle cx="6" cy="36" r="0.34" fill="#1E1E1E" opacity="0.06"/><circle cx="61" cy="56" r="1.03" fill="#1E1E1E" opacity="0.06"/><circle cx="50" cy="12" r="0.48" fill="#1E1E1E" opacity="0.06"/><circle cx="16" cy="10" r="0.22" fill="#1E1E1E" opacity="0.06"/><circle cx="31" cy="25" r="0.93" fill="#1E1E1E" opacity="0.06"/><circle cx="20" cy="44" r="0.82" fill="#1E1E1E" opacity="0.06"/><circle cx="1" cy="44" r="0.75" fill="#1E1E1E" opacity="0.06"/><circle cx="29" cy="52" r="0.31" fill="#1E1E1E" opacity="0.06"/><circle cx="43" cy="35" r="0.54" fill="#1E1E1E" opacity="0.06"/><circle cx="53" cy="45" r="0.43" fill="#1E1E1E" opacity="0.06"/><circle cx="4" cy="7" r="0.81" fill="#1E1E1E" opacity="0.06"/><circle cx="3" cy="7" r="0.38" fill="#1E1E1E" opacity="0.06"/><circle cx="28" cy="55" r="0.74" fill="#1E1E1E" opacity="0.06"/><circle cx="18" cy="36" r="0.64" fill="#1E1E1E" opacity="0.06"/><circle cx="5" cy="21" r="0.42" fill="#1E1E1E" opacity="0.06"/><circle cx="31" cy="34" r="0.20" fill="#1E1E1E" opacity="0.06"/><circle cx="52" cy="25" r="0.69" fill="#1E1E1E" opacity="0.06"/><circle cx="31" cy="1" r="0.62" fill="#1E1E1E" opacity="0.06"/><circle cx="42" cy="19" r="0.39" fill="#1E1E1E" opacity="0.06"/><circle cx="55" cy="2" r="0.62" fill="#1E1E1E" opacity="0.06"/>
    </pattern>
  </defs>
  
  
  
  <g opacity="0.2" transform="translate(575.04,774.72)">
    <path d="
      M 16.896 157.696
      C 42.24 112.64, 76.03200000000001 112.64, 101.376 157.696
      C 135.168 157.696, 152.06400000000002 191.488, 135.168 214.016
      C 101.376 214.016, 76.03200000000001 191.488, 59.135999999999996 191.488
      C 42.24 191.488, 30.4128 180.22400000000002, 16.896 157.696
      Z" fill="#6B6B6B"/>
  </g>
  <rect x="0.5" y="0.5" rx="20" ry="20" width="767" height="1023" fill="none" stroke="#A5352B" stroke-width="2" />
  
  <rect x="1" y="1" width="766" height="1022" fill="#FFFFFF" opacity="0.10" rx="20" ry="20"/>
</svg>