<svg xmlns="http://www.w3.org/2000/svg" width="512" height="256" viewBox="0 0 512 256">
  
  <defs>
    <pattern id="ptn700421" width="64" height="64" patternUnits="userSpaceOnUse">
      <rect x="0" y="0" width="64" height="64" fill="transparent"/>
      <circle cx="55" cy="5" r="0.89" fill="#1E1E1E" opacity="0.06"/><circle cx="37" cy="48" r="0.49" fill="#1E1E1E" opacity="0.06"/><circle cx="45" cy="24" r="0.84" fill="#1E1E1E" opacity="0.06"/><circle cx="19" cy="59" r="0.90" fill="#1E1E1E" opacity="0.06"/><circle cx="62" cy="57" r="0.86" fill="#1E1E1E" opacity="0.06"/><circle cx="42" cy="34" r="0.43" fill="#1E1E1E" opacity="0.06"/><circle cx="10" cy="61" r="0.59" fill="#1E1E1E" opacity="0.06"/><circle cx="20" cy="31" r="0.22" fill="#1E1E1E" opacity="0.06"/><circle cx="59" cy="32" r="0.86" fill="#1E1E1E" opacity="0.06"/><circle cx="21" cy="27" r="0.46" fill="#1E1E1E" opacity="0.06"/><circle cx="41" cy="44" r="0.56" fill="#1E1E1E" opacity="0.06"/><circle cx="58" cy="41" r="0.55" fill="#1E1E1E" opacity="0.06"/><circle cx="16" cy="16" r="1.00" fill="#1E1E1E" opacity="0.06"/><circle cx="7" cy="48" r="0.33" fill="#1E1E1E" opacity="0.06"/><circle cx="10" cy="36" r="1.03" fill="#1E1E1E" opacity="0.06"/><circle cx="8" cy="6" r="0.24" fill="#1E1E1E" opacity="0.06"/><circle cx="45" cy="60" r="1.05" fill="#1E1E1E" opacity="0.06"/><circle cx="60" cy="30" r="0.37" fill="#1E1E1E" opacity="0.06"/><circle cx="61" cy="57" r="0.34" fill="#1E1E1E" opacity="0.06"/><circle cx="1" cy="47" r="0.98" fill="#1E1E1E" opacity="0.06"/><circle cx="31" cy="18" r="0.94" fill="#1E1E1E" opacity="0.06"/><circle cx="49" cy="13" r="1.01" fill="#1E1E1E" opacity="0.06"/><circle cx="18" cy="20" r="0.97" fill="#1E1E1E" opacity="0.06"/><circle cx="0" cy="5" r="0.46" fill="#1E1E1E" opacity="0.06"/><circle cx="11" cy="52" r="0.25" fill="#1E1E1E" opacity="0.06"/><circle cx="1" cy="52" r="0.28" fill="#1E1E1E" opacity="0.06"/><circle cx="16" cy="43" r="1.00" fill="#1E1E1E" opacity="0.06"/><circle cx="4" cy="37" r="0.88" fill="#1E1E1E" opacity="0.06"/>
    </pattern>
  </defs>
  <rect x="1" y="1" rx="15" ry="15" width="510" height="254" fill="#F5E9D3" /><rect x="1" y="1" rx="15" ry="15" width="510" height="254" fill="url(#ptn700421)" />
  
  
  <g opacity="0.2" transform="translate(375.36,175.68)">
    <path d="
      M 11.264000000000001 39.424
      C 28.16 28.16, 50.688 28.16, 67.584 39.424
      C 90.11200000000001 39.424, 101.376 47.872, 90.11200000000001 53.504
      C 67.584 53.504, 50.688 47.872, 39.424 47.872
      C 28.16 47.872, 20.275199999999998 45.056000000000004, 11.264000000000001 39.424
      Z" fill="#6B6B6B"/>
  </g>
  <rect x="0.5" y="0.5" rx="16" ry="16" width="511" height="255" fill="none" stroke="#1E1E1E" stroke-width="2" />
  <text x="256" y="128" fill="#6B6B6B" font-size="18" font-family='system-ui, "Noto Sans TC", "PingFang TC", "Heiti TC", sans-serif' dominant-baseline="middle" text-anchor="middle">提示</text><text x="256" y="158.72" fill="#6B6B6B" font-size="18" font-family='system-ui, "Noto Sans TC", "PingFang TC", "Heiti TC", sans-serif' dominant-baseline="middle" text-anchor="middle">Hint</text>
  <rect x="1" y="1" width="64" height="254" fill="#1E6E64" rx="12" ry="12" opacity="0.8"/>
</svg>