<svg xmlns="http://www.w3.org/2000/svg" width="320" height="180" viewBox="0 0 320 180">
  
  <defs>
    <pattern id="ptn937222" width="64" height="64" patternUnits="userSpaceOnUse">
      <rect x="0" y="0" width="64" height="64" fill="transparent"/>
      <circle cx="60" cy="45" r="0.45" fill="#1E1E1E" opacity="0.06"/><circle cx="56" cy="13" r="0.74" fill="#1E1E1E" opacity="0.06"/><circle cx="46" cy="30" r="0.28" fill="#1E1E1E" opacity="0.06"/><circle cx="39" cy="45" r="0.30" fill="#1E1E1E" opacity="0.06"/><circle cx="40" cy="55" r="0.54" fill="#1E1E1E" opacity="0.06"/><circle cx="42" cy="18" r="0.93" fill="#1E1E1E" opacity="0.06"/><circle cx="58" cy="30" r="0.97" fill="#1E1E1E" opacity="0.06"/><circle cx="47" cy="37" r="0.39" fill="#1E1E1E" opacity="0.06"/><circle cx="57" cy="30" r="0.88" fill="#1E1E1E" opacity="0.06"/><circle cx="23" cy="9" r="0.80" fill="#1E1E1E" opacity="0.06"/><circle cx="40" cy="50" r="0.29" fill="#1E1E1E" opacity="0.06"/><circle cx="37" cy="58" r="0.89" fill="#1E1E1E" opacity="0.06"/><circle cx="0" cy="43" r="0.41" fill="#1E1E1E" opacity="0.06"/><circle cx="16" cy="20" r="0.69" fill="#1E1E1E" opacity="0.06"/><circle cx="46" cy="22" r="0.45" fill="#1E1E1E" opacity="0.06"/><circle cx="10" cy="56" r="0.88" fill="#1E1E1E" opacity="0.06"/><circle cx="13" cy="31" r="0.53" fill="#1E1E1E" opacity="0.06"/><circle cx="60" cy="38" r="0.81" fill="#1E1E1E" opacity="0.06"/><circle cx="8" cy="16" r="0.31" fill="#1E1E1E" opacity="0.06"/><circle cx="35" cy="7" r="0.98" fill="#1E1E1E" opacity="0.06"/><circle cx="29" cy="43" r="0.62" fill="#1E1E1E" opacity="0.06"/><circle cx="62" cy="43" r="0.90" fill="#1E1E1E" opacity="0.06"/><circle cx="31" cy="44" r="0.44" fill="#1E1E1E" opacity="0.06"/><circle cx="6" cy="52" r="0.38" fill="#1E1E1E" opacity="0.06"/><circle cx="21" cy="20" r="1.06" fill="#1E1E1E" opacity="0.06"/><circle cx="21" cy="23" r="0.71" fill="#1E1E1E" opacity="0.06"/><circle cx="41" cy="44" r="0.45" fill="#1E1E1E" opacity="0.06"/><circle cx="58" cy="2" r="0.76" fill="#1E1E1E" opacity="0.06"/>
    </pattern>
  </defs>
  <rect x="1" y="1" rx="15" ry="15" width="318" height="178" fill="#F5E9D3" /><rect x="1" y="1" rx="15" ry="15" width="318" height="178" fill="url(#ptn937222)" />
  
  
  <g opacity="0.2" transform="translate(225.6,116.4)">
    <path d="
      M 7.040000000000001 27.72
      C 17.6 19.8, 31.680000000000003 19.8, 42.24 27.72
      C 56.32000000000001 27.72, 63.36000000000001 33.660000000000004, 56.32000000000001 37.62
      C 42.24 37.62, 31.680000000000003 33.660000000000004, 24.64 33.660000000000004
      C 17.6 33.660000000000004, 12.672 31.680000000000003, 7.040000000000001 27.72
      Z" fill="#6B6B6B"/>
  </g>
  <rect x="0.5" y="0.5" rx="16" ry="16" width="319" height="179" fill="none" stroke="#1E1E1E" stroke-width="2" />
  <text x="160" y="90" fill="#6B6B6B" font-size="18" font-family='system-ui, "Noto Sans TC", "PingFang TC", "Heiti TC", sans-serif' dominant-baseline="middle" text-anchor="middle">縮圖</text><text x="160" y="111.6" fill="#6B6B6B" font-size="18" font-family='system-ui, "Noto Sans TC", "PingFang TC", "Heiti TC", sans-serif' dominant-baseline="middle" text-anchor="middle">Thumbnail</text>
  
</svg>