<svg xmlns="http://www.w3.org/2000/svg" width="512" height="512" viewBox="0 0 512 512">
  
  <defs>
    <pattern id="ptn123350" width="64" height="64" patternUnits="userSpaceOnUse">
      <rect x="0" y="0" width="64" height="64" fill="transparent"/>
      <circle cx="14" cy="25" r="0.71" fill="#1E1E1E" opacity="0.06"/><circle cx="5" cy="27" r="0.91" fill="#1E1E1E" opacity="0.06"/><circle cx="57" cy="7" r="0.81" fill="#1E1E1E" opacity="0.06"/><circle cx="55" cy="21" r="0.27" fill="#1E1E1E" opacity="0.06"/><circle cx="32" cy="43" r="0.49" fill="#1E1E1E" opacity="0.06"/><circle cx="14" cy="29" r="0.21" fill="#1E1E1E" opacity="0.06"/><circle cx="10" cy="58" r="0.89" fill="#1E1E1E" opacity="0.06"/><circle cx="22" cy="20" r="0.72" fill="#1E1E1E" opacity="0.06"/><circle cx="31" cy="57" r="0.70" fill="#1E1E1E" opacity="0.06"/><circle cx="4" cy="59" r="0.72" fill="#1E1E1E" opacity="0.06"/><circle cx="5" cy="19" r="0.47" fill="#1E1E1E" opacity="0.06"/><circle cx="36" cy="30" r="1.09" fill="#1E1E1E" opacity="0.06"/><circle cx="35" cy="61" r="0.37" fill="#1E1E1E" opacity="0.06"/><circle cx="60" cy="13" r="0.30" fill="#1E1E1E" opacity="0.06"/><circle cx="43" cy="14" r="0.40" fill="#1E1E1E" opacity="0.06"/><circle cx="45" cy="15" r="1.09" fill="#1E1E1E" opacity="0.06"/><circle cx="19" cy="51" r="0.26" fill="#1E1E1E" opacity="0.06"/><circle cx="38" cy="62" r="0.90" fill="#1E1E1E" opacity="0.06"/><circle cx="26" cy="15" r="0.56" fill="#1E1E1E" opacity="0.06"/><circle cx="18" cy="29" r="0.69" fill="#1E1E1E" opacity="0.06"/><circle cx="7" cy="36" r="0.24" fill="#1E1E1E" opacity="0.06"/><circle cx="29" cy="50" r="0.43" fill="#1E1E1E" opacity="0.06"/><circle cx="3" cy="59" r="0.99" fill="#1E1E1E" opacity="0.06"/><circle cx="49" cy="42" r="0.30" fill="#1E1E1E" opacity="0.06"/><circle cx="42" cy="61" r="0.62" fill="#1E1E1E" opacity="0.06"/><circle cx="15" cy="60" r="0.21" fill="#1E1E1E" opacity="0.06"/><circle cx="1" cy="6" r="0.59" fill="#1E1E1E" opacity="0.06"/><circle cx="62" cy="41" r="0.61" fill="#1E1E1E" opacity="0.06"/>
    </pattern>
  </defs>
  
  <rect x="1" y="1" width="510" height="64" rx="15" fill="#000000" opacity="0.08"/>
  
  <rect x="0.5" y="0.5" rx="16" ry="16" width="511" height="511" fill="none" stroke="#C9A227" stroke-width="2" />
  
  
</svg>