<svg xmlns="http://www.w3.org/2000/svg" width="1280" height="720" viewBox="0 0 1280 720">
  
  <defs>
    <pattern id="ptn793467" width="64" height="64" patternUnits="userSpaceOnUse">
      <rect x="0" y="0" width="64" height="64" fill="transparent"/>
      <circle cx="54" cy="40" r="0.32" fill="#1E1E1E" opacity="0.06"/><circle cx="31" cy="30" r="0.61" fill="#1E1E1E" opacity="0.06"/><circle cx="47" cy="52" r="0.39" fill="#1E1E1E" opacity="0.06"/><circle cx="12" cy="59" r="0.47" fill="#1E1E1E" opacity="0.06"/><circle cx="20" cy="50" r="0.73" fill="#1E1E1E" opacity="0.06"/><circle cx="13" cy="39" r="0.42" fill="#1E1E1E" opacity="0.06"/><circle cx="0" cy="16" r="0.77" fill="#1E1E1E" opacity="0.06"/><circle cx="59" cy="2" r="0.80" fill="#1E1E1E" opacity="0.06"/><circle cx="5" cy="10" r="0.72" fill="#1E1E1E" opacity="0.06"/><circle cx="4" cy="54" r="0.92" fill="#1E1E1E" opacity="0.06"/><circle cx="27" cy="19" r="0.35" fill="#1E1E1E" opacity="0.06"/><circle cx="41" cy="39" r="1.04" fill="#1E1E1E" opacity="0.06"/><circle cx="48" cy="45" r="0.21" fill="#1E1E1E" opacity="0.06"/><circle cx="57" cy="54" r="0.86" fill="#1E1E1E" opacity="0.06"/><circle cx="3" cy="0" r="0.59" fill="#1E1E1E" opacity="0.06"/><circle cx="14" cy="2" r="0.77" fill="#1E1E1E" opacity="0.06"/><circle cx="26" cy="17" r="0.79" fill="#1E1E1E" opacity="0.06"/><circle cx="0" cy="63" r="0.86" fill="#1E1E1E" opacity="0.06"/><circle cx="61" cy="23" r="0.74" fill="#1E1E1E" opacity="0.06"/><circle cx="16" cy="60" r="0.90" fill="#1E1E1E" opacity="0.06"/><circle cx="30" cy="36" r="0.50" fill="#1E1E1E" opacity="0.06"/><circle cx="26" cy="17" r="0.53" fill="#1E1E1E" opacity="0.06"/><circle cx="18" cy="45" r="0.80" fill="#1E1E1E" opacity="0.06"/><circle cx="21" cy="50" r="1.02" fill="#1E1E1E" opacity="0.06"/><circle cx="49" cy="5" r="0.21" fill="#1E1E1E" opacity="0.06"/><circle cx="55" cy="32" r="0.91" fill="#1E1E1E" opacity="0.06"/><circle cx="40" cy="14" r="0.85" fill="#1E1E1E" opacity="0.06"/><circle cx="57" cy="34" r="0.46" fill="#1E1E1E" opacity="0.06"/>
    </pattern>
  </defs>
  <rect x="1" y="1" rx="23" ry="23" width="1278" height="718" fill="#F5E9D3" /><rect x="1" y="1" rx="23" ry="23" width="1278" height="718" fill="url(#ptn793467)" />
  
  
  <g opacity="0.2" transform="translate(974.4,537.6)">
    <path d="
      M 28.160000000000004 110.88
      C 70.4 79.2, 126.72000000000001 79.2, 168.96 110.88
      C 225.28000000000003 110.88, 253.44000000000003 134.64000000000001, 225.28000000000003 150.48
      C 168.96 150.48, 126.72000000000001 134.64000000000001, 98.56 134.64000000000001
      C 70.4 134.64000000000001, 50.688 126.72000000000001, 28.160000000000004 110.88
      Z" fill="#6B6B6B"/>
  </g>
  <rect x="0.5" y="0.5" rx="24" ry="24" width="1279" height="719" fill="none" stroke="#1E1E1E" stroke-width="2" />
  <text x="640" y="360" fill="#6B6B6B" font-size="51" font-family='system-ui, "Noto Sans TC", "PingFang TC", "Heiti TC", sans-serif' dominant-baseline="middle" text-anchor="middle">地圖背景</text><text x="640" y="446.4" fill="#6B6B6B" font-size="18" font-family='system-ui, "Noto Sans TC", "PingFang TC", "Heiti TC", sans-serif' dominant-baseline="middle" text-anchor="middle">Map Placeholder</text>
  
</svg>