<svg xmlns="http://www.w3.org/2000/svg" width="768" height="1024" viewBox="0 0 768 1024">
  
  <defs>
    <pattern id="ptn192795" width="64" height="64" patternUnits="userSpaceOnUse">
      <rect x="0" y="0" width="64" height="64" fill="transparent"/>
      <circle cx="51" cy="28" r="0.29" fill="#1E1E1E" opacity="0.06"/><circle cx="49" cy="6" r="0.21" fill="#1E1E1E" opacity="0.06"/><circle cx="36" cy="7" r="0.94" fill="#1E1E1E" opacity="0.06"/><circle cx="18" cy="60" r="0.78" fill="#1E1E1E" opacity="0.06"/><circle cx="13" cy="63" r="0.31" fill="#1E1E1E" opacity="0.06"/><circle cx="20" cy="44" r="0.70" fill="#1E1E1E" opacity="0.06"/><circle cx="24" cy="32" r="0.54" fill="#1E1E1E" opacity="0.06"/><circle cx="19" cy="0" r="0.74" fill="#1E1E1E" opacity="0.06"/><circle cx="39" cy="10" r="0.85" fill="#1E1E1E" opacity="0.06"/><circle cx="63" cy="14" r="0.75" fill="#1E1E1E" opacity="0.06"/><circle cx="25" cy="57" r="0.97" fill="#1E1E1E" opacity="0.06"/><circle cx="8" cy="22" r="0.30" fill="#1E1E1E" opacity="0.06"/><circle cx="38" cy="43" r="0.30" fill="#1E1E1E" opacity="0.06"/><circle cx="8" cy="6" r="0.62" fill="#1E1E1E" opacity="0.06"/><circle cx="36" cy="36" r="0.56" fill="#1E1E1E" opacity="0.06"/><circle cx="2" cy="41" r="0.57" fill="#1E1E1E" opacity="0.06"/><circle cx="43" cy="4" r="0.52" fill="#1E1E1E" opacity="0.06"/><circle cx="30" cy="40" r="1.08" fill="#1E1E1E" opacity="0.06"/><circle cx="38" cy="36" r="0.84" fill="#1E1E1E" opacity="0.06"/><circle cx="5" cy="1" r="0.24" fill="#1E1E1E" opacity="0.06"/><circle cx="39" cy="47" r="0.34" fill="#1E1E1E" opacity="0.06"/><circle cx="31" cy="28" r="0.67" fill="#1E1E1E" opacity="0.06"/><circle cx="10" cy="6" r="0.86" fill="#1E1E1E" opacity="0.06"/><circle cx="8" cy="19" r="0.34" fill="#1E1E1E" opacity="0.06"/><circle cx="2" cy="47" r="0.51" fill="#1E1E1E" opacity="0.06"/><circle cx="56" cy="29" r="0.21" fill="#1E1E1E" opacity="0.06"/><circle cx="34" cy="60" r="0.82" fill="#1E1E1E" opacity="0.06"/><circle cx="32" cy="48" r="0.53" fill="#1E1E1E" opacity="0.06"/>
    </pattern>
  </defs>
  
  <rect x="1" y="927" width="766" height="96" rx="19" fill="#000000" opacity="0.08"/>
  
  <rect x="0.5" y="0.5" rx="20" ry="20" width="767" height="1023" fill="none" stroke="#1E6E64" stroke-width="2" />
  
  
</svg>